<mxfile host="Electron" modified="2023-07-12T03:32:17.458Z" agent="Mozilla/5.0 (Windows NT 10.0; Win64; x64) AppleWebKit/537.36 (KHTML, like Gecko) draw.io/21.5.0 Chrome/112.0.5615.204 Electron/24.5.1 Safari/537.36" etag="miyJ-dqzHJBNW2WCCYtN" version="21.5.0" type="device">
  <diagram id="C5RBs43oDa-KdzZeNtuy" name="Page-1">
    <mxGraphModel dx="1816" dy="418" grid="0" gridSize="10" guides="1" tooltips="1" connect="1" arrows="1" fold="1" page="0" pageScale="1" pageWidth="827" pageHeight="1169" math="0" shadow="0">
      <root>
        <mxCell id="WIyWlLk6GJQsqaUBKTNV-0" />
        <mxCell id="WIyWlLk6GJQsqaUBKTNV-1" parent="WIyWlLk6GJQsqaUBKTNV-0" />
        <mxCell id="AxSBWbACGW3FejU11dCZ-1" value="" style="rounded=0;whiteSpace=wrap;html=1;" vertex="1" parent="WIyWlLk6GJQsqaUBKTNV-1">
          <mxGeometry x="-48" y="541" width="188" height="107" as="geometry" />
        </mxCell>
        <mxCell id="AxSBWbACGW3FejU11dCZ-3" value="使用本地存储" style="rounded=1;whiteSpace=wrap;html=1;fillColor=#f5f5f5;fontColor=#333333;strokeColor=none;strokeWidth=0;fontStyle=1" vertex="1" parent="WIyWlLk6GJQsqaUBKTNV-1">
          <mxGeometry x="111" y="697" width="109" height="23" as="geometry" />
        </mxCell>
        <mxCell id="AxSBWbACGW3FejU11dCZ-0" value="Guest OS" style="rounded=1;whiteSpace=wrap;html=1;fontSize=12;glass=0;strokeWidth=1;shadow=0;" vertex="1" parent="WIyWlLk6GJQsqaUBKTNV-1">
          <mxGeometry x="-33" y="558" width="70" height="20" as="geometry" />
        </mxCell>
        <mxCell id="AxSBWbACGW3FejU11dCZ-4" value="Guest OS" style="rounded=1;whiteSpace=wrap;html=1;fontSize=12;glass=0;strokeWidth=1;shadow=0;" vertex="1" parent="WIyWlLk6GJQsqaUBKTNV-1">
          <mxGeometry x="-23" y="568" width="70" height="20" as="geometry" />
        </mxCell>
        <mxCell id="AxSBWbACGW3FejU11dCZ-5" value="Guest OS" style="rounded=1;whiteSpace=wrap;html=1;fontSize=12;glass=0;strokeWidth=1;shadow=0;" vertex="1" parent="WIyWlLk6GJQsqaUBKTNV-1">
          <mxGeometry x="-13" y="578" width="70" height="20" as="geometry" />
        </mxCell>
        <mxCell id="AxSBWbACGW3FejU11dCZ-7" value="local storage" style="rounded=0;whiteSpace=wrap;html=1;fillColor=#1ba1e2;strokeColor=#006EAF;fontColor=#ffffff;" vertex="1" parent="WIyWlLk6GJQsqaUBKTNV-1">
          <mxGeometry x="-30" y="615" width="156" height="33" as="geometry" />
        </mxCell>
        <mxCell id="AxSBWbACGW3FejU11dCZ-8" value="宿主机" style="text;html=1;strokeColor=none;fillColor=none;align=center;verticalAlign=middle;whiteSpace=wrap;rounded=0;" vertex="1" parent="WIyWlLk6GJQsqaUBKTNV-1">
          <mxGeometry x="16" y="648" width="60" height="30" as="geometry" />
        </mxCell>
        <mxCell id="AxSBWbACGW3FejU11dCZ-9" value="" style="rounded=0;whiteSpace=wrap;html=1;" vertex="1" parent="WIyWlLk6GJQsqaUBKTNV-1">
          <mxGeometry x="187" y="541" width="188" height="107" as="geometry" />
        </mxCell>
        <mxCell id="AxSBWbACGW3FejU11dCZ-10" value="Guest OS" style="rounded=1;whiteSpace=wrap;html=1;fontSize=12;glass=0;strokeWidth=1;shadow=0;" vertex="1" parent="WIyWlLk6GJQsqaUBKTNV-1">
          <mxGeometry x="202" y="558" width="70" height="20" as="geometry" />
        </mxCell>
        <mxCell id="AxSBWbACGW3FejU11dCZ-11" value="Guest OS" style="rounded=1;whiteSpace=wrap;html=1;fontSize=12;glass=0;strokeWidth=1;shadow=0;" vertex="1" parent="WIyWlLk6GJQsqaUBKTNV-1">
          <mxGeometry x="212" y="568" width="70" height="20" as="geometry" />
        </mxCell>
        <mxCell id="AxSBWbACGW3FejU11dCZ-12" value="Guest OS" style="rounded=1;whiteSpace=wrap;html=1;fontSize=12;glass=0;strokeWidth=1;shadow=0;" vertex="1" parent="WIyWlLk6GJQsqaUBKTNV-1">
          <mxGeometry x="222" y="578" width="70" height="20" as="geometry" />
        </mxCell>
        <mxCell id="AxSBWbACGW3FejU11dCZ-13" value="local storage" style="rounded=0;whiteSpace=wrap;html=1;fillColor=#1ba1e2;strokeColor=#006EAF;fontColor=#ffffff;" vertex="1" parent="WIyWlLk6GJQsqaUBKTNV-1">
          <mxGeometry x="205" y="615" width="156" height="33" as="geometry" />
        </mxCell>
        <mxCell id="AxSBWbACGW3FejU11dCZ-14" value="宿主机" style="text;html=1;strokeColor=none;fillColor=none;align=center;verticalAlign=middle;whiteSpace=wrap;rounded=0;" vertex="1" parent="WIyWlLk6GJQsqaUBKTNV-1">
          <mxGeometry x="251" y="648" width="60" height="30" as="geometry" />
        </mxCell>
        <mxCell id="AxSBWbACGW3FejU11dCZ-15" value="" style="rounded=0;whiteSpace=wrap;html=1;" vertex="1" parent="WIyWlLk6GJQsqaUBKTNV-1">
          <mxGeometry x="-48" y="778" width="190" height="77" as="geometry" />
        </mxCell>
        <mxCell id="AxSBWbACGW3FejU11dCZ-16" value="使用共享存储" style="rounded=1;whiteSpace=wrap;html=1;fillColor=#f5f5f5;fontColor=#333333;strokeColor=none;strokeWidth=0;fontStyle=1" vertex="1" parent="WIyWlLk6GJQsqaUBKTNV-1">
          <mxGeometry x="113.5" y="974" width="109" height="23" as="geometry" />
        </mxCell>
        <mxCell id="AxSBWbACGW3FejU11dCZ-17" value="Guest OS" style="rounded=1;whiteSpace=wrap;html=1;fontSize=12;glass=0;strokeWidth=1;shadow=0;" vertex="1" parent="WIyWlLk6GJQsqaUBKTNV-1">
          <mxGeometry x="-33" y="795" width="70" height="20" as="geometry" />
        </mxCell>
        <mxCell id="AxSBWbACGW3FejU11dCZ-18" value="Guest OS" style="rounded=1;whiteSpace=wrap;html=1;fontSize=12;glass=0;strokeWidth=1;shadow=0;" vertex="1" parent="WIyWlLk6GJQsqaUBKTNV-1">
          <mxGeometry x="-23" y="805" width="70" height="20" as="geometry" />
        </mxCell>
        <mxCell id="AxSBWbACGW3FejU11dCZ-28" style="edgeStyle=orthogonalEdgeStyle;rounded=0;orthogonalLoop=1;jettySize=auto;html=1;exitX=0.5;exitY=1;exitDx=0;exitDy=0;entryX=0.5;entryY=0;entryDx=0;entryDy=0;curved=1;" edge="1" parent="WIyWlLk6GJQsqaUBKTNV-1" source="AxSBWbACGW3FejU11dCZ-19" target="AxSBWbACGW3FejU11dCZ-26">
          <mxGeometry relative="1" as="geometry" />
        </mxCell>
        <mxCell id="AxSBWbACGW3FejU11dCZ-19" value="Guest OS" style="rounded=1;whiteSpace=wrap;html=1;fontSize=12;glass=0;strokeWidth=1;shadow=0;" vertex="1" parent="WIyWlLk6GJQsqaUBKTNV-1">
          <mxGeometry x="-13" y="815" width="70" height="20" as="geometry" />
        </mxCell>
        <mxCell id="AxSBWbACGW3FejU11dCZ-21" value="宿主机" style="text;html=1;strokeColor=none;fillColor=none;align=center;verticalAlign=middle;whiteSpace=wrap;rounded=0;" vertex="1" parent="WIyWlLk6GJQsqaUBKTNV-1">
          <mxGeometry x="16" y="860" width="60" height="30" as="geometry" />
        </mxCell>
        <mxCell id="AxSBWbACGW3FejU11dCZ-22" value="" style="rounded=0;whiteSpace=wrap;html=1;" vertex="1" parent="WIyWlLk6GJQsqaUBKTNV-1">
          <mxGeometry x="187" y="778" width="185" height="80" as="geometry" />
        </mxCell>
        <mxCell id="AxSBWbACGW3FejU11dCZ-23" value="Guest OS" style="rounded=1;whiteSpace=wrap;html=1;fontSize=12;glass=0;strokeWidth=1;shadow=0;" vertex="1" parent="WIyWlLk6GJQsqaUBKTNV-1">
          <mxGeometry x="202" y="795" width="70" height="20" as="geometry" />
        </mxCell>
        <mxCell id="AxSBWbACGW3FejU11dCZ-24" value="Guest OS" style="rounded=1;whiteSpace=wrap;html=1;fontSize=12;glass=0;strokeWidth=1;shadow=0;" vertex="1" parent="WIyWlLk6GJQsqaUBKTNV-1">
          <mxGeometry x="212" y="805" width="70" height="20" as="geometry" />
        </mxCell>
        <mxCell id="AxSBWbACGW3FejU11dCZ-29" style="edgeStyle=orthogonalEdgeStyle;rounded=0;orthogonalLoop=1;jettySize=auto;html=1;exitX=0.5;exitY=1;exitDx=0;exitDy=0;entryX=0.5;entryY=0;entryDx=0;entryDy=0;curved=1;" edge="1" parent="WIyWlLk6GJQsqaUBKTNV-1" source="AxSBWbACGW3FejU11dCZ-25" target="AxSBWbACGW3FejU11dCZ-26">
          <mxGeometry relative="1" as="geometry" />
        </mxCell>
        <mxCell id="AxSBWbACGW3FejU11dCZ-25" value="Guest OS" style="rounded=1;whiteSpace=wrap;html=1;fontSize=12;glass=0;strokeWidth=1;shadow=0;" vertex="1" parent="WIyWlLk6GJQsqaUBKTNV-1">
          <mxGeometry x="222" y="815" width="70" height="20" as="geometry" />
        </mxCell>
        <mxCell id="AxSBWbACGW3FejU11dCZ-26" value="共享存储" style="rounded=0;whiteSpace=wrap;html=1;fillColor=#1ba1e2;strokeColor=#006EAF;fontColor=#ffffff;" vertex="1" parent="WIyWlLk6GJQsqaUBKTNV-1">
          <mxGeometry x="90" y="908" width="156" height="33" as="geometry" />
        </mxCell>
        <mxCell id="AxSBWbACGW3FejU11dCZ-27" value="宿主机" style="text;html=1;strokeColor=none;fillColor=none;align=center;verticalAlign=middle;whiteSpace=wrap;rounded=0;" vertex="1" parent="WIyWlLk6GJQsqaUBKTNV-1">
          <mxGeometry x="251" y="868" width="60" height="30" as="geometry" />
        </mxCell>
      </root>
    </mxGraphModel>
  </diagram>
</mxfile>
